# xmcd
#
# Track frame offsets: 
#        150
#        7912
#        28520
#        46275
#        65040
#        80880
#        104210
#        120950
#        137542
#        150637
#        171405
#        190225
#        214790
#
# Disc length: 3054 seconds
#
# Revision: 0
# Processed by: cddbd v1.5.2PL0 Copyright (c) Steve Scherf et al.
# Submitted via: ExactAudioCopyFreeDBPlugin 1.0
#
DISCID=b20bec0d
DTITLE=คาราบาว - โฟล์ค 'บาว
DYEAR=1900
DGENRE=Thai Country
TTITLE0=โหมโรง
TTITLE1=ขึ้เมาใจดี
TTITLE2=ตุ๊กตา
TTITLE3=คนเก็บฝืน
TTITLE4=ลูกรอ
TTITLE5=แม่สาย
TTITLE6=เมด อิน ไทยแลนด์
TTITLE7=ไม้ไผ่
TTITLE8=สบายกว่า
TTITLE9=วณิพก
TTITLE10=เวลคัม ทู ไทยแลนด์
TTITLE11=นักรักตัวจริง
TTITLE12=กระถางดอกไม้ให้คุณ
EXTD=
EXTT0=
EXTT1=
EXTT2=
EXTT3=
EXTT4=
EXTT5=
EXTT6=
EXTT7=
EXTT8=
EXTT9=
EXTT10=
EXTT11=
EXTT12=
PLAYORDER=
